<svg id="Ebene_3" data-name="Ebene 3" xmlns="http://www.w3.org/2000/svg" viewBox="0 0 2499.8661 3014.2461"><title>martinique-map</title><polygon points="1121.458 2678.342 1137.659 2687.792 1145.759 2677.667 1133.608 2669.566 1121.458 2678.342" fill="#105769"/><polygon points="890.229 2055.453 890.229 2063.521 901.102 2065.274 900.752 2055.804 894.789 2049.49 890.229 2055.453" fill="#105769"/><polygon points="1235.727 2040.021 1241.69 2045.983 1248.355 2044.931 1254.668 2039.669 1269.049 2036.863 1272.908 2027.743 1267.296 2021.079 1238.183 2024.587 1235.727 2040.021" fill="#105769"/><polygon points="1338.149 2022.131 1349.023 2024.587 1350.426 2015.817 1340.955 2015.817 1338.149 2022.131" fill="#105769"/><polygon points="1436.713 568.933 1442.676 564.022 1442.676 555.604 1423.033 555.955 1419.175 561.216 1417.772 564.373 1427.944 567.88 1436.713 568.933" fill="#105769"/><polygon points="1573.509 651.011 1578.771 655.22 1582.278 656.974 1589.644 656.974 1590.345 648.205 1576.315 634.174 1572.106 635.928 1569.651 640.137 1573.509 642.592 1573.509 651.011" fill="#105769"/><polygon points="1830.967 705.729 1831.318 699.766 1820.444 701.871 1822.899 706.431 1830.967 705.729" fill="#105769"/><polygon points="1755.553 907.767 1755.553 912.327 1761.166 916.536 1768.882 917.939 1770.285 907.416 1758.009 906.364 1755.553 907.767" fill="#105769"/><polygon points="2090.179 766.761 2091.231 750.276 2076.499 747.82 2085.969 765.008 2090.179 766.761" fill="#105769"/><polygon points="1891.999 1196.442 1900.768 1199.249 1907.783 1195.39 1906.731 1177.852 1900.768 1181.359 1891.999 1196.442" fill="#105769"/><polygon points="1948.822 1185.919 1955.487 1193.286 1962.151 1195.741 1967.062 1182.061 1948.121 1180.658 1948.822 1185.919" fill="#105769"/><polygon points="2084.215 1144.53 2064.573 1133.656 2058.61 1133.306 2048.438 1125.939 2036.161 1124.186 2039.318 1117.872 2032.303 1116.82 2006.698 1125.939 2002.489 1118.223 1995.122 1118.574 1995.122 1127.343 1982.144 1125.939 1981.092 1117.521 1968.465 1118.924 1969.166 1124.887 1974.428 1128.395 1987.757 1138.567 2006.347 1143.828 2010.907 1157.508 2015.116 1164.874 2027.392 1167.68 2029.848 1152.948 2032.654 1152.247 2037.915 1156.456 2042.124 1156.105 2043.878 1152.247 2062.118 1147.336 2084.566 1155.403 2084.215 1144.53" fill="#105769"/><polygon points="2068.782 1182.061 2054.05 1160.314 2049.14 1161.717 2053.699 1171.539 2055.102 1184.517 2064.222 1190.479 2068.782 1182.061" fill="#105769"/><polygon points="2081.76 1193.286 2071.939 1192.935 2077.2 1199.599 2081.76 1198.547 2081.76 1193.286" fill="#105769"/><polygon points="2075.096 1264.49 2081.76 1263.087 2078.603 1254.318 2073.693 1254.318 2075.096 1264.49" fill="#105769"/><polygon points="2066.677 1291.849 2070.536 1283.781 2064.573 1276.766 2055.102 1278.871 2058.61 1289.043 2066.677 1291.849" fill="#105769"/><path d="M2508.9142,1925.0539l5.2614.3506,6.6645-8.7685,8.769-5.2618-.3509-6.664-11.2242-3.1573-3.1569-10.1718s-10.8735-.7012-11.9258-.7012-6.3137,8.0674-6.3137,8.0674l2.8062,4.91,5.9629,4.21-.3509,8.7686Z" transform="translate(-478.0142 -391.1809)" fill="#105769"/><polygon points="2243.11 1556.673 2247.67 1552.464 2245.916 1550.009 2249.073 1535.276 2238.901 1534.926 2230.833 1550.009 2233.288 1555.972 2243.11 1556.673" fill="#105769"/><polygon points="2179.271 1604.025 2197.862 1602.271 2199.265 1592.45 2210.489 1588.942 2210.489 1579.823 2202.772 1579.473 2189.093 1594.555 2170.152 1595.607 2168.398 1602.271 2174.712 1605.429 2179.271 1604.025" fill="#105769"/><path d="M2736.9081,1954.5178l2.8062,6.665,4.9106,2.1045,14.03-1.7539.3507-8.418,1.7539-1.4033v-3.5078l-4.2092-1.0517-1.0522-7.0157,3.5075-5.6123-1.0522-2.8056-11.2244,7.3652-5.2612,10.5234h-8.7691c-1.0523,0-.3508,5.6123-.3508,5.6123Z" transform="translate(-478.0142 -391.1809)" fill="#105769"/><polygon points="2261.349 1626.825 2267.663 1627.176 2271.171 1624.369 2271.171 1619.108 2258.894 1625.071 2261.349 1626.825" fill="#105769"/><polygon points="2168.749 1678.387 2169.099 1682.596 2179.622 1687.506 2183.481 1681.543 2182.779 1671.371 2174.01 1669.968 2168.749 1678.387" fill="#105769"/><polygon points="2189.093 1653.482 2184.533 1665.058 2185.562 1667.148 2188.041 1667.162 2197.511 1660.849 2213.997 1660.849 2216.452 1649.975 2234.341 1649.273 2240.654 1653.833 2255.036 1656.64 2259.946 1653.482 2255.036 1646.818 2244.864 1640.855 2250.125 1628.579 2243.11 1624.72 2220.31 1639.102 2217.154 1633.84 2213.646 1633.84 2209.788 1644.714 2189.093 1653.482" fill="#105769"/><polygon points="2351.9 1913.677 2355.153 1903.195 2345.032 1897.413 2324.792 1918.015 2325.877 1924.882 2351.9 1913.677" fill="#105769"/><polygon points="2398.525 2743.531 2395.633 2747.868 2380.453 2746.423 2376.116 2760.88 2380.092 2764.133 2391.658 2772.446 2401.055 2769.916 2409.006 2754.735 2407.199 2747.868 2398.525 2743.531" fill="#105769"/><polygon points="2359.128 2845.095 2365.996 2846.179 2376.839 2830.275 2373.947 2827.384 2359.128 2845.095" fill="#105769"/><polygon points="2360.574 2867.865 2367.803 2871.118 2368.887 2866.058 2361.659 2863.889 2360.574 2867.865" fill="#105769"/><polygon points="2349.731 2881.238 2364.55 2882.684 2366.357 2877.624 2352.984 2875.455 2349.731 2881.238" fill="#105769"/><polygon points="2149.135 2989.307 2145.159 3000.15 2150.581 3013.161 2155.641 3014.246 2162.146 3012.077 2161.424 2991.114 2149.135 2989.307" fill="#105769"/><polygon points="2054.8 2576.187 2044.68 2576.187 2042.512 2583.777 2050.825 2583.416 2054.8 2576.187" fill="#105769"/><polygon points="1493.492 2478.238 1493.131 2467.757 1487.348 2465.949 1481.203 2474.263 1483.733 2487.274 1490.601 2489.081 1495.299 2485.467 1493.492 2478.238" fill="#105769"/><polygon points="665.01 1488.504 662.656 1466.133 704.671 1408.946 718.259 1383.859 707.082 1353.682 729.649 1270.184 714.701 1251.786 723.44 1225.568 689.848 1204.98 680.625 1175.006 663.971 1161.921 663.971 1128.711 683.203 1111.742 680.704 1076.753 730.37 1078.173 732.718 1094.604 747.387 1096.699 762.565 1123.008 777.474 1109.031 788.595 1108.02 799.211 1079.358 825.515 1048.044 850.466 1051.609 857.4 1047.448 845.299 979.24 851.807 941.495 879.922 939.05 886.112 932.173 845.571 878.483 842.091 849.483 830.876 827.052 850.577 827.052 847.06 790.334 824.957 790.334 812.475 761.805 846.604 734.785 846.604 683.859 815.15 667.503 766.653 648.398 769.464 597.811 737.828 571.677 739.041 551.06 726.581 551.06 714.506 496.719 723.769 437.166 719.036 434.207 672.524 483.376 593.806 494.827 577.125 487.876 538.658 490.624 494.347 472.899 489.057 459.673 478.154 457.492 442.93 453.265 419.634 439.562 401.079 438.016 394.292 419.352 391.703 398.64 361.892 371.81 374.704 357.397 369.198 310.597 384.499 293.905 383.164 249.865 388.198 229.728 379.483 219.768 362.529 149.125 363.884 119.31 359.274 108.552 374.721 79.061 364.092 16.25 346.2 16.836 314.632 31.568 306.564 23.852 293.235 23.15 270.085 51.562 255.704 53.666 249.39 64.189 227.994 71.556 211.859 70.502 210.456 80.675 206.948 86.988 148.722 105.929 139.953 105.228 122.766 117.855 106.982 137.498 106.982 143.812 100.668 151.879 90.496 185.903 84.533 194.672 71.555 193.97 66.995 198.179 66.995 204.493 62.085 205.194 58.927 211.859 64.189 218.173 61.734 224.837 56.472 228.345 39.636 251.846 32.27 278.854 17.538 289.026 14.381 313.931 9.821 320.945 7.366 342.342 0 347.603 0 350.76 3.858 357.775 3.858 366.193 1.052 369.701 1.052 408.285 9.471 431.786 18.24 439.502 19.292 444.062 12.627 452.13 11.926 463.354 22.098 481.243 37.531 489.31 50.86 526.14 57.525 546.484 73.309 568.933 89.794 598.396 137.147 607.867 153.984 625.405 158.193 635.227 154.334 641.189 174.328 666.093 182.044 684.683 204.493 702.923 203.09 710.99 204.493 712.394 214.665 710.64 220.979 712.744 222.382 720.812 258.51 746.769 275.346 769.918 292.183 794.822 297.094 805.345 310.072 821.129 310.773 829.548 314.281 855.503 309.37 871.639 299.549 894.438 295.34 907.767 294.638 920.745 284.116 955.119 281.66 977.218 264.824 1028.779 264.122 1048.422 268.682 1064.206 292.183 1127.693 292.183 1131.552 292.534 1135.761 296.743 1138.216 297.795 1141.022 296.743 1144.53 296.743 1146.284 302.355 1148.037 317.438 1177.852 319.542 1184.867 327.61 1190.128 337.782 1205.211 369.701 1262.034 385.485 1272.557 385.485 1281.677 410.389 1318.156 407.934 1321.664 409.337 1323.769 415.65 1320.962 422.666 1330.082 420.912 1335.694 432.838 1370.068 445.816 1370.77 457.742 1381.644 459.495 1401.637 459.145 1408.652 468.615 1421.63 476.332 1422.332 480.541 1427.944 498.43 1430.75 532.103 1457.408 538.417 1465.826 537.013 1477.051 537.013 1486.17 540.521 1487.223 549.641 1494.939 559.111 1514.23 575.948 1512.126 592.784 1513.88 596.993 1519.142 615.233 1520.193 632.069 1537.03 647.503 1536.329 655.749 1543.461 651.205 1523.016 665.01 1488.504" fill="#105769"/><path d="M848.3514,500.1623l3.6406,8.4942-1.395,30.69,16.0488,66.8721,10.5366,12.04-5.9668,23.8677,1.4161,46.7192L857.679,705.1579l5.4951,46.709-9.19,10.3394,25.1938,22.6748,2.9116,23.2929,4.2143,11.5889,14.4483,1.2036,23.46,13.8,33.7251,4.0625,16.4071,3.2818,5.7109,14.2763,38.1978,15.2793,38.5415-2.7534,16.3213,6.8008,72.5459-10.5523,49.7485-52.5908,17.27,10.7925-9.9883,64.209,9.9263,44.6689h15.0435l-1.5381,26.1382L1257.743,984.5l-2.69,48.4219,42.2621,16.6494,37.3032,19.3975v61.8349l-31.8774,25.2363,6.77,15.4747h24.6513l5.4331,56.7177H1325.07l4.7569,9.5142,3.3657,28.0449,43.8851,58.12-14.3462,15.94-23.8656,2.0752,22.7411,23.8237,45.8623,44.7437,22.1792,7.0048,22.9771,33.3164,88.6865,38.3213,22.2246-13.8906,5.4439,28.582,52.9511,23.8794,30.1963-25.3647,17.6348,23.9331h23.0239l29.2549,20.7222,26.5674,33.2094,34.9946,4.6665,10.5952,23.545,29.7754,12.32,15.6914-3.6216,35.2852,29.4043,2.019-40.3823h17.7095l-6.6255-15.46,26.0967-1.8643,13.57,23.438,27.9126,19.7715,8.1914,28.0855,29.9087,36.81,4.1592,30.1543h37.0752l17.26,25.315,29.5923,2.4658v25.8232l29.4444,18.8438-6.8111,21.5674,15.3838,9.2294,11.85,39.1084,9.5938,19.587,60.2177-2.2725,21.8809,14.9707,17.6123.9277,6.4961-8.6631,32.8672-4.5332,54.1528-84.6132,16.0786-9.6475,3.5845-25.09,61.3965-12.53,17.434,11.623,36.42-2.4287,10.7734,33.2168,3.8153-2.9482,7.0153-1.4024,7.3658,3.8584,5.963-22.0986-1.7539-12.9775,3.5077-.7022,3.5075,12.2774,8.4183,5.2607,9.4706,2.1045v-14.7315l1.4029-11.9262-4.91-5.2613,3.5076-3.1567,7.7168,1.4028,4.2089-1.0522.3509-3.5078v-6.3135l1.4031-16.4858,4.2089-7.0152-1.0522-6.313-9.8213-8.0673-34.7252-1.0533-8.4183,5.9629-2.4554,9.4707-1.7536,12.9781,4.9106,11.9262-8.769.7012-10.5227,1.4033.7014-12.6274h-25.9562l2.806-13.68,6.3138-4.209-1.754-7.0146-21.3962,2.8051-1.4031,14.732-11.2243-5.9629-1.403-7.0152,2.1045-4.9106-3.1569-6.3135-15.4333-1.4033-4.9107,4.5605v6.313l2.8062,2.4556v8.418l-8.769-2.4551-6.6646,1.7539-6.3136-4.91-2.1046-11.5752-9.8213-1.0527-22.0979,13.3286-4.9106,16.4859-8.0674,1.0522-6.3137,11.5752-6.6645,6.6646.3508,20.3437-5.9629-2.8057-14.732-1.0522-5.9629,11.5747-18.59,2.4561-4.2092,2.455-5.9629-.3506-11.2244-22.4492-9.47-8.0674-4.2092-12.6274-4.209-5.9629-1.7539-13.68-2.1045-10.8735L2202.35,1706.18l-2.806-10.1724-12.9781-11.9253,1.4029-25.9565,25.2548-12.2764,6.3137-23.15,5.2614-3.8584-4.2092-4.209,2.4554-13.68,14.7319-.3511,16.4857,20.3437,11.2244,4.9107,12.978-3.8584,16.8366,3.8584,2.806-7.7158-13.68-4.5606-14.7319-18.59-2.1045-12.6275,2.8061-5.9629v-3.1567l16.4856-10.5229,13.68,2.8061,8.0675-3.8584,6.6644,7.3662h5.2615l.3507-9.8213,3.8583-7.7163,40.3374-7.7168-1.7537,17.1866,3.5076,5.2617,5.6122,1.4028,8.7689-12.978,5.6122-3.1563,1.0522-2.456-.7015-5.2608,9.4706-18.9414,8.0674-3.5078,6.3137,1.4033,13.3288-.7011,6.3138-.7022,2.4553-6.6641-3.8583-4.9111.7014-4.56,6.6644-4.9106-1.403-3.1572-13.68-2.1045,12.2766-16.1348-4.2091-4.9106-34.3745,19.6426-7.0151-2.1045-7.0153-1.4034-8.7689-4.56-2.8062-4.9107-3.5075-4.56-13.3289-1.4029-1.4031-16.8364,4.2093-1.7539,8.4182-8.418-14.3811-9.12v-6.3135l3.5074-4.2089,1.7538-5.6124-2.1045-5.2617v-5.2612l8.4182-4.209,1.4031-12.2768-4.2091-3.8584-10.5228,6.6645h-4.56l-3.5074-5.9629-9.8213.3506-3.5077,22.4487-9.8213,8.0674-3.8584,8.0679-7.7168-4.56-27.0084,19.292-32.9714,2.1045-7.366-15.083,4.9107-11.9258,3.8582-6.3134,10.1721-3.8584,3.1569-5.9629,10.172-4.9107.7015-8.769-5.9628-5.2608.7015-5.9629,7.7167-10.5234,7.0152,1.0527,9.8213-3.1572,4.209-5.9629-16.8364-10.1719-9.8213,7.0147-10.8736,1.0527-2.8061,6.6641-7.7167,1.0527-4.56,8.0669.3508,17.1875-8.769,3.5078-15.4334-4.9111-12.9781-17.8887,1.4029-8.0669-7.3658-5.6123-7.366.3506-6.6644-5.6123-10.8736-1.0517-6.3137-12.628-1.403-29.4638,16.8364-11.5743-4.209-9.8213.7014-3.8583,11.5752,8.0673,14.3811-5.6123,15.7842,11.2246,3.8584-3.1577-7.7168-5.6118-.7014-6.3135-4.2093-7.3662-29.8145-7.0151-6.3136-8.7691,2.4553-23.852,7.366-9.12,7.3659,1.0522,5.6121-1.0522,2.8061-9.12,11.9258-11.2246.7016-18.9409,9.4705-6.6641,10.5227-.3505,4.2093,7.0146h17.8886l8.7691-7.3657,27.0085,1.4028,22.4485,22.7993,19.9934-.35,8.4182,6.6641,16.1352,4.209,8.4182,9.12v8.0674l7.0151,9.8213-2.8062,6.3139,1.0523,23.8516,17.8888,8.0674,11.2242-11.5747,20.6949-4.56,8.7691,14.7324,22.8-.7021,13.3287,10.1728,3.1569-10.5234-10.8736-8.7685,4.9107-4.9112,16.8364.7017,6.3137,8.769,8.4182-2.4551-10.8735-14.0307v-3.8584l10.5228-4.56v-6.3134l-23.15-10.523-26.6577-.7012-1.7536-8.77,11.5749-16.1348,17.1873,6.6646,1.7539-4.91-7.7168-4.9111,1.0522-9.8213,7.366-3.8584,21.7472,7.7168,5.2613-7.0146-1.0522-12.628,7.0151-15.7842-8.0673-5.2612-5.6124-12.2768-8.7689-1.4029-28.4116-10.8735,5.6122-24.2022,14.7319,10.1714v-24.5532l14.732-8.7685,3.1568,1.4028,3.5076-1.0523-.7016-3.5078,5.2615-1.7534,6.3136,8.7691,15.7842-.3511,6.6644-14.732,11.5752,5.9629-3.8584,6.314-1.0522,14.3814,8.4182,21.0458,18.59,14.731,5.2614-.3506-1.0523-2.4546,3.5077-4.56,20.6948,7.0151,5.9629-2.4546,3.5076-7.7168-21.0455-33.6733-.7016-6.314,7.3659,1.0523.7016-3.5073-2.8061-3.1568,12.9781-9.4707v-4.56h-8.4182l-1.0524-2.8062,6.3138-11.9258-5.2614-5.6118-13.329-2.4556-.3507-5.2612,8.7689,1.4028,4.56-6.313-10.523-6.665-17.1871-.7012-.7015-6.3134-2.4554-.7022-4.2092,3.8584-10.5227-4.209-2.1045-6.3135h-1.4031l-8.769,6.6641h-6.6643l.3507-4.91V1009.22l-5.2613-2.455-1.0525-7.0157L2506.81,998.697l-3.1569,13.68-12.9781,9.12-8.0675,7.3662,2.4555,9.47-31.5685,15.4336-2.4555,5.9629-17.1871,3.8584-7.7167,14.7319-32.27,5.2613-3.8584-4.209-4.56-12.6274-4.9106.351,1.0523,16.8365-21.7472,1.7539.3509,2.8056,9.47,3.8584.7017,13.3291-33.3224,8.418-12.9779,16.8364-14.732-1.0522-15.0828-15.0821-.3507-11.2246-10.172.3506-3.5076,4.56-24.5532.7016-4.56-4.56-6.6645,3.1567-1.7537,7.0156-5.9631.7012-7.0151-3.1562-1.7538,5.2607-.3507,7.0156-32.6207,14.7315-8.4182,4.209-16.8366-5.2613-1.0522,1.4029,1.4031,8.4184-1.0523,8.7691-15.7842,4.9106.3507,8.4185-11.575,3.8584-8.7691,15.7841-7.0151,7.0152-6.6646,51.5615-14.3811,12.6274-13.68,3.1568-19.6424-10.523-4.56-13.3286.7016-12.6274-5.9629-8.7691,1.0522-8.4184,5.9631-1.4024,4.2089-14.3818h-3.8582l-2.4554,4.5605h-3.8584l-12.2766-12.6279-1.0522-7.0151-1.0524-6.6646-7.7165-4.9106-.3509-8.7691,9.47-3.5073-13.68-36.479-11.9259,2.8066-4.2091-7.7167-13.3288-7.3663-11.5751-17.538,3.8584-8.0679-2.1046-8.7691-11.2243-7.7163-9.4706,3.1568-12.2766-7.0152-4.56-15.083-16.1349-12.6274,9.12-6.3135,15.7841,5.6123,3.1569-3.1567-5.9629-4.9107,2.806-10.5229-9.12-4.56-.7016-4.56h-5.2613l-7.7167,3.1567-23.15,2.4556-66.9951-67.3457.7014-27.0093-31.2176-17.187-12.2766-26.3072,3.8583-8.4174,11.2243-3.5079,1.7539-5.2617-7.0152-5.6123.7014-7.7168,12.2767-7.7168v-9.12l-14.732-3.1567-4.9106,3.1567-12.2766-3.8584-3.8584-3.8584L1809.85,806.13l-3.1569-2.1045L1791.61,815.6l-2.8062,9.12-14.7319,10.8741-24.9038-5.6123-28.0608-29.4639V768.2483l-3.157-9.12L1692.6959,732.47l-29.4639,2.8057-11.5751-5.6118,18.9411-16.4859.3508-19.2915-12.2766-8.769-30.867,6.6645L1607.11,680.2072l1.0523-11.2246-14.732-11.9257v-6.6646l-7.0151-2.1045L1553.0933,672.49l-26.3069,1.754-41.0389-21.3965-19.2919-14.0308-5.612-29.4634-30.867.3506-16.135-3.8584-9.12-11.5752-20.3441-1.7534-3.5077-9.4707L1371.4,579.89l.3509-12.2769-21.7472-14.7319-40.3373-4.209L1265.47,504.8274l-.7014-10.523-8.0677-7.3662-24.2022-1.0522-1.7541-5.6124-19.6425-15.4326-32.6206-10.1728-9.4705-9.1192-9.47-4.2089-21.747,6.3134-9.4707-2.455-3.1568-8.0679s-44.8974-21.0459-45.95-21.0459-39.6357-1.7539-39.6357-1.7539l-15.4336-13.68-47.3526,2.105-16.8364-11.5752-22.0979,9.47-34.7253-2.1045-47.3526,3.8584-4.0539,1.957,11.4285,67.5347Z" transform="translate(-478.0142 -391.1809)" fill="#105769"/><path d="M2948.7673,2961.1994l-14.0306-31.2177-8.7689-2.8067-.7015-24.2021-8.7691,1.0527-15.7841-5.6123-2.4554-6.3135,8.4183-3.8584,2.4554-3.8584-2.1046-7.3662,6.3137-5.9629,4.56,6.3135-1.4031,4.209L2917.9,2897.01l12.2766-1.4033,8.0675-9.1192,14.7318-2.4551,4.56-17.538,10.8735-6.6651,2.806-19.9932-22.4484-27.3593-1.0524-10.8731,2.4553-5.6123,3.5077-10.5234-7.366-22.4483-15.7841-1.7539-3.5076-10.873-5.963,4.91v8.418l-6.6644-.3506-15.4335-5.9629-3.5076-15.082-3.1568-11.9258,8.4182-23.15,1.0523-4.5605-10.1721-4.91.3507-15.083,8.4182-11.5752v-14.7314l-14.3811-24.2022-25.6054-1.0527-3.1568,4.209,20.344.7021-1.7536,6.6641-5.9632,2.4551-2.8059,5.2617-10.5229-.7012-5.6121,1.0518-2.1046,8.0674-6.3136-.7012-12.2766,2.4551-14.732-16.1348,1.0523-6.3135,7.7168-4.209.7014-8.0683s-3.8583-2.4551-5.2612-2.4551-1.0524-3.1562-1.0524-3.1562l12.2766-1.754,7.0153-6.3144-4.2093-12.627-9.47-4.5595,5.2612-13.3291,15.0828-8.0674,10.5228-16.8369,12.6273-6.3135,3.8584,3.5078,11.9259-.7012,2.1045-4.5605-2.806-4.56-8.7691-22.0976-4.2092-1.7539-2.1045,7.0146-15.7842-2.4551-9.8212,1.4033-.3509-4.9111-10.1718-2.4551-11.2244,2.8057s-5.2614-1.7529-6.3137-2.1045-1.7538-4.56-1.7538-4.56l7.3661.3506,7.3658-9.1191-.3507-10.874-4.9106-3.8584,2.806-7.0147,6.6644,2.8057,4.56,9.8213,12.2767,1.4033,22.0979,1.7539,7.0152-6.665-5.6122-6.6641-.3507-6.665-8.7691-20.6944-7.7166-3.1572-20.6948-23.1494-8.4182-2.1045-17.889-12.6279,1.754-7.3663,10.5227-2.8056,1.0523-1.7539-.3508-5.2617-3.1569-12.627,5.9629-14.7324,11.9261,1.0527,3.5074-5.2617,1.7539-8.0674,9.4706-1.0517,3.5076-2.1045,5.9628-38.9346,8.4183-2.1045,4.56-9.12,11.5752-1.4033V2301.42l-15.4335-3.5078-17.5381-3.5078-5.2613,8.7686-10.5227.7021-1.4031,6.3135,5.9629.7012-35.7776,24.2031-3.5076,18.59-38.9343,15.083-5.2615-18.5908,1.0523-6.3135,28.4116-2.1045,7.0152-14.7314-3.8582-8.0674,5.2612-10.1728-16.8364-1.0518-10.5227,16.1348-22.8-1.7539-2.1046-1.7539,10.8735-15.7842,15.7842-1.0518,10.8736-21.0459-12.6272-2.4551-9.4707,13.68-14.03-8.4189-11.2244,14.3818-7.0151-.7021-5.9629-34.0235-2.4553-11.9257h28.4113l18.9412-4.209,18.24-5.9629,4.2091-6.6651-6.6644-1.7529-10.1721,3.1563-38.2328-10.1719-16.8366,5.6123v-3.5078l8.4185-6.3135,2.1045-8.0674,26.3069-1.4033,7.3659,1.7539,2.1048-11.2246-4.56-2.4551-8.4182,2.1045-14.3811-9.8213v-5.9629l11.2244-4.209.7014-4.2089-4.9107-4.9112,1.4031-3.1562-.7014-5.2617-7.3661,2.1045-3.1569-1.754,1.7539-9.8212-4.9106-4.209,2.8062-15.4336-3.5079-1.7539-13.3287,15.7842-15.0826,2.456-4.9108,11.5742-5.9629,3.8584,1.403,11.5752-3.1568-1.0517-4.9106-7.3662-24.9041-2.1045-2.4552,4.5595-17.8888-3.5078,1.7538-9.82h-7.7167l-1.403-4.21-2.8061-11.9257-9.12-5.6123-6.6646-7.3653-4.2089-2.8066-1.0524-9.4707,4.56-18.59h6.3136l11.2244,5.2618,2.806-3.8584-1.4031-6.3135-4.91-4.21v-17.8887l-15.0826-11.2236-19.9934-6.665.7015-10.5225-29.4637-4.9111-.3509-9.47,8.7691-5.6123,9.47-2.8067,7.0152-10.873,11.2243-1.0528,10.8736-8.7685,19.6425-.7022.7016-2.8056-12.2765-12.627-9.8214,3.5068-18.9411-2.455-1.0522-8.418-2.8062-5.2617h-7.0151l-3.1567,5.6123-18.59,4.9111v5.9629l1.403,3.8584-8.7689-2.1055-.7016-7.0146-6.3137-.7012-7.0152.3506-7.0152,12.2764-4.9106,9.8213-4.9107-1.7539,4.2093-19.292-4.2093-9.8213-8.7689-3.8584-5.6122,5.6123-2.1046,8.0674-15.7842-3.8584-12.2766,2.456-3.8583-7.3662-20.6948.7012v-10.8731l8.0674-4.21,7.0151,1.7539,2.1048-2.4551-8.0677-7.3662v-10.1719l-4.56-10.873,7.366-1.7539,11.2244,4.2089,7.0151-12.6269h-6.3137l-1.0523-4.21,8.4182-2.8056,10.8737,3.1572,7.0153-5.9629-8.4184-14.0312,7.366-9.8213v-5.6114l-8.0675.3506-11.5751,9.1192-1.0524-3.8584,3.157-5.2608.3507-9.4707-8.4182-7.3662,12.6273-11.2246,27.71.7021-8.4183-18.5908-22.4486,13.68-12.6273.3516-4.9107-9.8218-8.769-3.5078-.7014-5.6123-9.8213-5.9629-21.7472-2.1045-5.963,3.8584L2400.88,1826.14l8.4181-16.8365,8.4183-1.0522,6.6643-5.2617,5.9629-3.1568-9.47-12.6274,2.4553-3.5068,8.769,7.7167h6.6646l2.4552-5.6123h7.0152l-2.1046,15.7837,2.8061,6.3135,12.6274,2.8062,5.6121-8.0674,3.415.1313-8.2756-25.5161-32.0342,2.1367-16.7925-11.1963-50.4121,10.2886-3.2612,22.8267-18.148,10.8887-55.3735,86.5224-33.3057,4.5938-7.1943,9.5927-25.7417-1.3554-21.4731-14.6924-52.4833,1.98,14.2455,29.0849-14.3013,16.6846,10.8906,63.165,15.47,32.1319-10.3706,26.6679-49.0234-12.2558-19.3955,2.2812-17.0938-4.2734-25.3315,15.6816-10.43-9.2715-34.9155,18.9541-9.8125,39.251-11.5352,29.4795-33.29,2.3779-58.4815,56.2325-15.8422,8.9111,4.6806,33.9385-26.4946,8.0644,2.3423,31.6221-19.64,2.1826,3.5386,14.1553-8.0571,23.0205,5.3365,32.0185h2.8352l3.5076-4.2089,5.9629-.7022,9.12-5.2607,14.03,16.8359-13.68,5.9629-1.403,4.209,6.3136,9.4707,11.2244-.3506,12.2765,7.7168,2.4553,10.1719-49.457.7011.3507,1.4034,33.3221,17.5381,3.5077,10.5224-40.3374,10.874-6.6644,16.836-14.0305,19.292-4.209-.3506-6.6646-12.627-18.9409-4.9111-12.6274,13.68-.3507,9.12-10.8737,2.4551-1.0522,5.6123,6.3137,12.2763-21.3964,1.4034-.7015-6.3135-6.3137-2.8066,2.1046-9.8213-7.0153-6.6641-14.3811-2.8066-7.0151,6.3144-3.8584-8.0674-14.3811,7.7158-.7017,9.8213-8.7689,12.2774-1.403-9.8213-7.7168-5.9629-19.2917,1.4023,9.8213-14.7314-1.4031-9.12-14.3811-2.4551-13.68-3.8584-8.0675,6.3135-1.4029-5.9629h-20.3443l-7.0151-3.8584-14.03-8.418-1.0523,3.1573,5.6122,6.664-2.8061,2.8057-5.9629-1.0518-1.0523,5.6123.7014,5.2608-7.3659-3.1563,1.0523-16.4863,12.2767-13.3281-3.8584-3.8584v-4.209l19.2918-1.4033,9.12-9.8213,9.47-1.7539.7016-4.9112-5.2615-3.1562v-4.209l3.5077-6.3145v-20.3437l-8.4183-7.7168-8.4183-.7012-12.978,20.3438,4.9107,15.083-5.2615-.3506-4.56-10.5234-1.7539-1.4024-6.3136,6.3135-22.7995-2.1045-12.2766,7.7168-3.5075-.7021,7.7167-18.2393v-4.56l8.0674-5.9629.7016-21.3965-16.4857-4.9111,1.403-11.5752-9.12-2.8056-4.209,3.8584v7.7168l-5.2615,4.2089-.7014,14.3809-9.8213,12.9785,12.2766,6.3135-1.7539,11.5752-11.2244,12.6269-8.0674-2.455-7.0151-5.9629-12.2766,1.4033-8.0676,9.8213,1.0523,8.4179-22.7994,29.8145.7015,8.7695L1444.007,2472.24l-6.3136,4.21-8.769-9.12-19.9934-1.0527-7.0152,3.8584-8.769-10.1719h-4.9106l-5.2614,7.7168-7.7167.7012-2.1045,5.6123.7015,4.5605-15.0827,15.4326h-3.8584l-11.9259,7.7168-7.0151,6.3145-14.3811,2.4551v5.9629l-5.2615,7.7168-3.1567,13.3291,5.9628,7.7158,3.8584,8.7695h-8.0676l-7.366-6.3135-3.8584,4.91,7.7168,5.6123-.7014,3.1572-12.2765,3.5069-12.6275.7021-6.6643,2.4551,1.4032,9.12.35,10.873-17.8886,14.7325,3.5075,31.5683-6.6643,16.1348-7.7168,2.1045-10.172,16.1347,3.1569,9.4708,24.5532,3.5078,12.978,1.0517,18.9409-7.0146,30.867,12.2763,5.094,20.4229-2.0249,9.4512,5.4,3.375v10.8007l-17.5507-1.3505-14.8509,4.05,3.3753,15.5263-6.75,12.8252v6.0752l14.8506,8.1006,44.5523.6748,7.4253,14.1758-4.7253,12.15,4.7253,44.5527-9.4505,12.8252-8.7754,2.0254-.675,6.0752,2.7,6.0752-6.0755,7.4258,11.4756,28.3506,23.6262,11.4755,33.0766-8.7753,18.9009,18.9013,2.025,34.4268,29.7014,24.9756,31.0515,13.5009s15.9949.0274,17.0471.0274,9.4706-10.1729,9.4706-10.1729l23.5009-9.47,10.5228-16.4863,8.0675-29.8145-2.4553-18.2392,25.6054-29.8145,83.8316-35.7783,55.0693-18.94,24.5532,28.4111,35.076,30.5166,20.6949,3.8584-.3507-2.4551L1800.73,2892.1l3.1569-18.24,5.9629-7.0147-3.1569-3.8584,11.2243-9.4707,6.6645,2.1045,1.4031,5.6123,15.4333,21.0459-2.1045,17.1866,9.12,9.4707,9.4705,5.6123,12.2766.3505,12.9781,1.754,4.2091,8.4179,7.366,2.4561,12.9781-8.77-3.1568-12.9775-2.1046-6.665,4.56-8.7686-1.0524-16.4863-10.5227-8.0674-.3508-8.418,2.1046-3.5078,16.8366,15.7842-.3509,7.0156,11.2244,12.9776,10.5227-1.0518,3.1569-7.3662-3.8583-11.5752V2860.18l9.47-.3506,1.0523-3.8584-3.1567-5.9629v-5.6123l8.0673-11.2236-14.7319-17.8887-1.0522-9.12,3.1568-9.4707,5.6122-2.4551,4.56,3.5078-5.612,2.8057-2.8062,4.9111,3.5076,2.8057-.3507,5.9629,4.9105,5.2617,4.56,5.6123,11.9258,4.209v8.418l7.366,4.56,2.1045,9.12,11.5752,11.2247,2.1045,6.3134-5.9629,16.1348-8.4182,5.9629.3507,9.4707,8.4182,7.7168,19.2919,10.1719,26.3068-14.03-.7014-12.9785,27.3592-.7012,6.6645,2.8057,5.6121,9.4707,7.0152,13.68,24.2025,4.56,7.366,11.9268,5.6121,1.7529,12.9781-5.9629s61.0322,2.1045,62.0845,2.1045,11.2244,8.77,11.2244,8.77l27.3592.3506,3.8584,11.2246,21.0455.7012,14.732-4.56,11.9259-8.4179,22.4486-4.5606,5.2613-8.0674,23.15-3.5078,2.1045-5.9629,4.2091-1.4023,5.6122-9.8213,2.1045-4.5605,1.7539,4.2089-.3509,12.2774,28.7625-3.8584.3507,6.3135-7.366,18.9414,3.8583,19.6426,4.9106,8.7685,10.1722.7012-2.1048,4.9111,16.8366,16.8359,40.3374,31.5684-3.1569,10.5234,1.7539,6.6641,10.8736,2.8066,6.6644-8.7695,32.6206-19.6426-1.7538-18.2392,6.3137-4.9112,6.6646-11.9257h4.91l35.0761-42.0909,2.4553-1.7539,4.209,4.56,3.5075-3.1562.3509-4.209,3.8584-6.3145,18.24-2.1045,8.4182-16.1347-1.0523-7.7168,13.68-2.4551-.3508,13.3291,12.2766,4.209,13.3289-2.1045,32.6206,2.4551-1.7537,9.12,3.5076,8.0674-8.0674,4.91-.3508,5.6123,17.1872,4.9112v8.4179l-5.6122,1.4033-22.7994,14.3809.3508,14.03,17.1873,5.6123.7014,5.2617-19.9933-1.0527-6.6644-5.2618-6.6646-1.4023-5.9629,2.4551-3.5075-.7012,3.5075-6.665-1.0522-6.3135-12.6272,9.4707v7.7168l1.4028,6.3135-2.806,4.209-3.8583,10.1718-6.3137,1.4034-1.7538,8.7685,8.0675,1.7539,5.2615-3.1562L2594.85,3031l3.1569,7.0156-9.12-3.5078-8.4183.3506-3.8583,11.2246-11.2243-2.8066-20.6948-25.6055-9.12.3516-3.5076,23.8515,23.8518,46.3-15.0828,40.6885-14.7319,10.8731-5.2614,31.5683-15.7843,14.7324-9.12,16.4854-17.1871,1.4033.7014,15.083,45.95,31.919.3506,17.8886-14.732.7012,1.4031,9.8213,14.03,3.8584,2.806,8.4189-2.4552,5.6114,2.8061,7.7168,16.135.7021,11.9258,5.2608,20.6948,22.0986,1.7539,10.873-11.2244,3.8584.7014,6.6641,18.2395,5.2617,17.889-.7012,16.4855,10.1719,6.3138.3506,15.4334-14.03,9.12,1.4034,1.4031,5.2607,7.3659,2.1045,4.56-6.3135,5.6122-2.4551,4.56,6.6641,6.3137-1.0518-.3508-7.0156,11.9257-4.209,4.9107,4.56,4.2091-.3506,3.5077-19.9931-3.1569-4.209,4.56-5.2618-.7017-13.68,7.7168-3.5069,2.806-10.5234,11.5751-4.56,7.7168-4.9111,5.6121-21.0449,16.135-11.9258h14.7319l4.2091,8.4179,9.8213,6.6641,15.4335-1.7539,2.806-4.209,1.7538-9.1191,1.7539-4.9112L2793.3805,3238.3l-12.2766,2.8057-13.68.7012,11.9261-30.1651-8.4184-7.0156-15.0826,7.7168.7014-15.7842-7.7165-1.7539-5.2615,4.9111-1.7538-1.7539,3.8583-9.4707,2.4553-21.0449,33.3223,4.209,12.2766,20.3437-10.1721-1.0527-1.0523,2.4561,17.1873,7.7168,22.4487-5.6124,5.9629-4.9111,6.3135-8.0674s-7.0152-2.8056-8.0674-2.8056-.7014-5.9629-.7014-5.9629l10.1718-2.8067,7.0153-17.8886-7.7167-3.8584-1.0522-8.0674,3.1567-5.6123,10.523-3.1563,5.2612-7.7168,4.56-5.9629,5.612,2.1045-.7016,7.7168,7.3659-.3506,1.7539-7.0156,5.2614-1.7539,3.1568-7.7168,7.0153-14.03,1.403-9.8212,2.8061-23.15,9.47-8.418.7015-11.9258-8.7689-10.874-1.0524-17.1865,13.329-4.209,1.7537-4.9112-1.7537-13.3291,19.6426-13.68,4.56-2.8057,6.3136,2.8057,6.3137-1.7539.7015-6.6641-1.0522-3.8584,5.2615-1.7539,25.6053,7.3662,5.6122-3.5078v-4.91Z" transform="translate(-478.0142 -391.1809)" fill="#105769"/><polygon points="770.619 1638.4 779.388 1646.818 779.388 1652.431 784.299 1671.021 792.367 1676.282 793.068 1682.946 814.815 1716.97 820.428 1725.739 830.95 1725.389 839.018 1722.582 859.011 1723.985 910.573 1709.254 957.575 1706.447 964.59 1712.06 966.694 1727.493 974.411 1735.911 979.672 1719.776 973.709 1704.693 976.516 1701.537 981.777 1708.201 985.285 1708.552 996.509 1706.447 997.561 1713.813 1001.42 1715.918 1010.89 1707.851 1013.696 1710.306 1001.069 1735.21 1006.33 1740.822 1004.576 1746.785 1012.293 1754.501 1017.204 1761.517 1023.167 1759.763 1021.413 1756.606 1023.167 1749.591 1041.757 1747.486 1041.757 1734.508 1065.609 1730.299 1075.079 1742.225 1060.347 1751.345 1066.31 1780.458 1086.303 1778.354 1094.02 1756.255 1114.014 1749.941 1112.26 1731.352 1116.469 1728.545 1131.902 1737.314 1139.97 1751.345 1149.09 1751.345 1151.545 1748.188 1137.865 1720.828 1135.761 1717.321 1135.761 1697.679 1156.456 1682.946 1166.277 1679.438 1171.889 1679.438 1176.8 1683.999 1184.516 1683.999 1190.83 1668.565 1206.263 1669.267 1212.577 1654.185 1211.875 1649.624 1215.383 1643.661 1224.854 1641.557 1226.607 1649.273 1228.361 1659.445 1234.675 1658.042 1233.973 1661.9 1244.847 1668.565 1245.899 1672.073 1235.727 1676.983 1237.481 1699.783 1261.333 1701.537 1267.296 1706.447 1260.28 1709.254 1231.167 1710.306 1219.943 1716.269 1215.383 1724.336 1251.161 1722.582 1252.564 1726.791 1265.893 1728.545 1262.736 1736.612 1270.803 1743.628 1262.034 1743.628 1258.878 1751.345 1248.354 1752.046 1245.899 1760.815 1233.272 1765.726 1221.697 1765.024 1222.048 1772.391 1219.592 1779.055 1221.697 1795.189 1216.085 1802.906 1217.488 1810.974 1229.414 1821.848 1243.093 1820.795 1248.004 1817.639 1257.825 1821.497 1262.736 1829.213 1273.96 1829.564 1278.871 1850.96 1291.147 1853.767 1303.424 1853.065 1307.984 1867.446 1279.923 1895.857 1280.625 1911.642 1293.603 1916.553 1299.916 1918.657 1297.812 1932.337 1302.722 1939.352 1296.76 1960.748 1313.245 1965.309 1317.805 1952.681 1344.463 1955.838 1349.609 1962.837 1344.947 1934.861 1352.862 1912.246 1347.274 1889.894 1368.706 1887.513 1366.485 1857.526 1392.472 1849.617 1388.026 1817.384 1408.692 1805.759 1468.864 1747.901 1499.464 1745.716 1508.465 1722.713 1519.189 1679.818 1564.137 1655.419 1574.243 1664.401 1596.829 1650.42 1616.244 1655.273 1635.64 1652.992 1677.888 1663.555 1683.49 1649.149 1669.297 1619.672 1657.369 1550.492 1670.45 1535.232 1644.338 1481.921 1633.371 1445.729 1614.527 1434.423 1621.407 1412.635 1593.806 1394.971 1593.806 1372.876 1568.635 1370.779 1551.668 1345.894 1511.162 1345.894 1506.194 1309.876 1476.776 1273.668 1468.995 1246.99 1442.145 1227.972 1430.614 1208.055 1424.765 1208.473 1431.831 1224.959 1408.468 1224.959 1405.924 1275.848 1359.064 1236.798 1345.092 1240.021 1308.694 1224.96 1298.754 1202.87 1265.294 1198.409 1237.099 1163.164 1211.59 1145.095 1186.696 1145.095 1172.385 1125.674 1145.537 1148.227 1082.116 1119.626 1078.433 1100.289 1064.149 1109.217 968.009 1067.676 945.35 1034.82 924.175 1028.133 876.422 981.54 858.32 962.576 855.451 979.216 868.449 1052.48 852.566 1062.01 829.599 1058.729 807.985 1084.46 795.783 1117.407 781.804 1118.678 760.204 1138.928 741.156 1105.911 723.879 1103.442 721.662 1087.928 691.466 1087.065 693.531 1115.966 673.971 1133.224 673.971 1157.061 689.263 1169.075 698.295 1198.428 735.439 1221.193 725.924 1249.74 740.638 1267.851 717.57 1353.206 729.211 1384.637 712.932 1414.59 673.006 1468.935 675.215 1489.919 661.638 1523.861 667.371 1549.662 677.668 1552.814 698.714 1564.39 707.132 1573.86 728.528 1586.487 737.297 1596.659 745.365 1606.13 746.066 1617.004 748.522 1622.967 764.656 1629.28 770.619 1638.4" fill="#105769"/></svg>